<svg version="1.1" xmlns="http://www.w3.org/2000/svg" xmlns:xlink="http://www.w3.org/1999/xlink" width="167.96783" height="132.69959" viewBox="0,0,167.96783,132.69959"><g transform="translate(-185.56532,21.15948)"><g stroke="#000000" stroke-width="0" stroke-miterlimit="10"><g><g><path d="M306.5543,57.67813l-29.78933,-51.57078l11.68938,-6.75225l29.78933,51.57078z" fill="#e8ff00"/><path d="M318.45143,50.97391l-29.78933,-51.57078l11.68938,-6.75225l29.78933,51.57078z" fill="#000000"/></g><g><path d="M329.94665,43.86777l-29.78933,-51.57078l11.68938,-6.75225l29.78933,51.57078z" fill="#e8ff00"/><path d="M341.84378,37.16355l-29.78933,-51.57078l11.68937,-6.75225l29.78933,51.57078z" fill="#000000"/></g></g><g><g><path d="M261.08659,83.81643l-29.78933,-51.57078l11.68937,-6.75225l29.78933,51.57078z" fill="#e8ff00"/><path d="M272.98372,77.11221l-29.78933,-51.57078l11.68937,-6.75225l29.78933,51.57078z" fill="#000000"/></g><g><path d="M284.47894,70.00608l-29.78933,-51.57078l11.68938,-6.75225l29.78933,51.57078z" fill="#e8ff00"/><path d="M296.37607,63.30186l-29.78933,-51.57078l11.68938,-6.75225l29.78933,51.57078z" fill="#000000"/></g></g><g><g><path d="M215.35465,111.54011l-29.78933,-51.57077l11.68937,-6.75225l29.78933,51.57078z" fill="#e8ff00"/><path d="M227.25179,104.83589l-29.78933,-51.57078l11.68937,-6.75225l29.78933,51.57078z" fill="#000000"/></g><g><path d="M238.747,97.72976l-29.78933,-51.57078l11.68938,-6.75225l29.78933,51.57078z" fill="#e8ff00"/><path d="M250.64413,91.02554l-29.78933,-51.57078l11.68938,-6.75225l29.78933,51.57078z" fill="#000000"/></g></g></g></g></svg>